<svg width="319" height="313" viewBox="0 0 319 313" fill="none" xmlns="http://www.w3.org/2000/svg">
<path fill-rule="evenodd" clip-rule="evenodd" d="M319 211.436C314.254 210.771 310.752 209.089 308.501 206.389C304.095 201.068 306.324 193.949 309.419 184.064L309.424 184.048L309.425 184.047C312.854 173.12 317.124 159.517 315.223 141.276C312.515 115.375 299.522 100.302 286.924 85.6887L286.791 85.5349C276.642 73.8097 267.068 62.729 264.66 47.1664C262.55 33.5162 266.447 18.6609 276.255 3.00427C276.567 2.50635 276.885 2.00732 277.209 1.50708C277.534 1.00586 277.865 0.50354 278.202 0H276.892C276.663 0.344482 276.437 0.688477 276.214 1.03186C275.912 1.49719 275.615 1.96155 275.323 2.42493C271.693 8.13086 268.72 14.2291 266.461 20.6033C263.247 29.8909 262.287 38.8351 263.592 47.3285C266.038 63.181 275.705 74.3617 285.944 86.2035L285.974 86.2379C298.515 100.737 311.483 115.736 314.148 141.384C316.023 159.401 311.792 172.896 308.396 183.723L308.395 183.727L308.393 183.733C305.193 193.948 302.882 201.324 307.673 207.071C310.146 210.042 313.899 211.866 319 212.552V211.436ZM319 258.876C303.681 265.287 291.31 269.969 281.234 273.197C259.274 280.242 247.991 280.539 243.513 274.179C238.298 266.768 243.494 253.523 250.688 235.189L250.82 234.852L250.878 234.705C259.267 213.359 270.764 184.106 272.387 147.75C272.632 142.185 271.902 127.597 267.368 112.208C261.154 91.0928 250.254 75.3182 234.968 65.3306C223.084 57.5315 210.563 54.5448 196.719 56.1244C184.437 57.5034 172.142 62.3663 160.264 67.0645L160.26 67.0659L160.13 67.1176C136.772 76.3448 112.621 85.8809 85.4052 71.6705C61.2331 59.045 45.5421 31.3245 45.423 1.04456C45.4218 0.695801 45.4225 0.347534 45.4254 0H44.2821C44.2792 0.350586 44.2785 0.701294 44.2802 1.05212C44.3922 31.7239 60.3039 59.8467 84.8358 72.6223C112.487 87.0604 136.867 77.4324 160.454 68.1129L160.496 68.0964C185.076 58.3947 208.296 49.2297 234.305 66.2327C266.664 87.3838 271.954 132.228 271.265 147.722C269.651 183.977 258.155 213.161 249.761 234.469L249.753 234.49L249.752 234.492C242.329 253.344 236.985 266.916 242.563 274.845C248.43 283.14 264.099 282.878 319 259.981V258.876ZM319 290.696C299.408 299.187 282.24 305.05 267.629 308.227C242.81 313.623 224.803 311.378 214.099 301.553C193.627 282.775 207.047 243.837 220.025 206.184L220.028 206.175C227.229 185.365 234.682 163.826 236.268 145.814C238.109 125.505 232.192 112.03 218.179 104.609C193.599 91.6018 173.157 101.495 151.514 112.01C129.631 122.623 106.977 133.585 76.7394 124.339C51.685 116.716 25.3688 93.463 11.2499 66.5264C1.51528 47.9056 -1.25522 29.4999 3.46401 14.6975C5.30142 8.95032 7.23916 4.2052 9.01333 0H7.81265C6.08608 4.10803 4.21353 8.74438 2.43569 14.3246C-2.39145 29.3896 0.418604 48.1262 10.3197 66.9846C24.5614 94.1609 51.1239 117.619 76.4306 125.355C107.086 134.729 129.913 123.664 151.988 112.965L151.99 112.964C173.377 102.592 193.58 92.7957 217.681 105.551C231.455 112.846 237.021 125.601 235.206 145.712C233.586 163.55 226.211 185.038 219.025 205.803L218.632 206.951C212.268 225.532 205.722 244.646 203.37 261.154C200.657 280.217 203.937 293.681 213.373 302.339C224.35 312.413 242.68 314.743 267.858 309.275C282.431 306.107 299.517 300.28 319 291.854V290.696ZM149.845 18.7449C139.122 15.0206 129.702 8.50781 122.477 0H123.849C130.922 8.08337 139.996 14.2068 150.194 17.7343C165.707 23.0815 182.707 22.0573 197.465 14.8859C204.969 11.2394 211.582 6.15503 216.977 0H218.425C218.129 0.348389 217.829 0.69397 217.525 1.03638C209.26 10.3502 198.418 17.0039 186.371 20.156C174.324 23.3081 161.613 22.817 149.845 18.7449Z" fill="white"/>
</svg>
