<svg width="183" height="365" viewBox="0 0 183 365" fill="none" xmlns="http://www.w3.org/2000/svg">
<path fill-rule="evenodd" clip-rule="evenodd" d="M0 364.999C0.155518 364.999 0.310791 365 0.466309 365C24.9014 365.053 49.0952 360.169 71.5959 350.64C116.084 331.7 151.244 295.889 169.366 251.062C187.489 206.234 187.093 156.05 168.267 111.513C149.441 66.9772 113.72 31.7249 68.9397 13.4878C46.8354 4.48573 23.4143 -0.00780233 0 1.01695e-05V72.5961C0.155518 72.5955 0.310791 72.5951 0.466309 72.5951C29.5935 72.6193 57.521 84.2008 78.1172 104.797C98.7131 125.393 110.295 153.321 110.319 182.448C110.319 204.175 103.876 225.414 91.8054 243.479C79.7346 261.544 62.5781 275.624 42.5051 283.939C28.9675 289.546 14.5137 292.361 0 292.3V364.999Z" fill="#6246D4"/>
</svg>
