<svg width="182" height="365" viewBox="0 0 182 365" fill="none" xmlns="http://www.w3.org/2000/svg">
<path fill-rule="evenodd" clip-rule="evenodd" d="M182 0C157.979 0.00805664 133.966 4.75366 111.389 14.2292C72.6128 30.6545 40.7051 59.9763 21.0688 97.2292C1.43259 134.482 -4.72537 177.377 3.63767 218.65C12.001 259.922 34.3711 297.036 66.9604 323.707C99.4292 350.278 140.054 364.857 182 364.999V292.3C174.993 292.27 167.973 291.57 161.035 290.19C139.726 285.951 120.152 275.489 104.789 260.125C89.4255 244.762 78.9629 225.188 74.7243 203.879C70.4856 182.57 72.6611 160.482 80.9756 140.409C89.29 120.336 103.37 103.179 121.435 91.1086C139.371 79.1243 160.436 72.6876 182 72.5961V0Z" fill="#6246D4"/>
</svg>
