<svg width="334" height="343" viewBox="0 0 334 343" fill="none" xmlns="http://www.w3.org/2000/svg">
<path fill-rule="evenodd" clip-rule="evenodd" d="M0 339.914C0.926758 340.156 1.875 340.394 2.84668 340.629C20.9746 345.041 42.7798 340.16 64.1323 326.928C94.9048 307.889 120.268 274.67 127.241 244.249C135.691 207.398 120.755 181.474 106.312 156.404C92.313 132.116 79.0903 109.174 92.0693 79.7488C99.4937 62.9323 114.03 55.3123 137.841 55.7568C158.961 56.1631 184.859 63.0332 209.891 69.7404L211.271 70.1051C233.666 76.0302 256.703 82.1249 276.322 83.5043C298.975 85.0929 314.538 80.1024 323.93 68.2747C334.858 54.5142 336.059 32.7556 327.509 3.59668C327.162 2.41125 326.797 1.21228 326.417 0H325.09C325.273 0.579346 325.453 1.15552 325.628 1.72864C325.857 2.47571 326.08 3.21753 326.296 3.95398C334.729 32.6962 333.603 54.0688 322.944 67.4862C302.575 93.1484 255.64 80.6338 210.254 68.5316L210.245 68.5294L210.241 68.5283C185.155 61.8068 159.194 54.8505 137.872 54.4988C113.827 54.0409 98.4712 62.1339 90.9189 79.2427C77.6846 109.252 91.0415 132.468 105.23 157.044C119.554 181.894 134.354 207.623 126.02 243.971C119.158 274.085 94.0161 306.998 63.5151 325.872C42.4282 338.889 21.0088 343.695 3.19922 339.388C2.104 339.122 1.03857 338.851 0 338.577V339.914ZM0 290C29.1089 283.115 53.5278 264.123 64.5005 238.794C79.1606 205.051 65.7847 177.181 52.8389 150.217L52.8169 150.17C39.3364 122.07 26.603 95.5243 44.4189 63.4984C66.5806 23.6538 118.889 13.6605 137.174 13.1685C179.96 12.02 215.258 23.0906 241.029 31.1731L241.057 31.1815C263.857 38.3293 280.274 43.4753 289.133 36.2472C295.027 31.4122 296.514 22.2007 288.689 0H287.399C294.271 19.4017 294.466 30.1246 288.27 35.1851C279.989 41.9437 263.97 36.9434 241.795 30.0211L241.392 29.8951L241.21 29.8384C215.395 21.7644 180.017 10.6995 137.113 11.8462C130.545 12.0255 113.446 14.1113 95.7236 20.739C71.4067 29.824 53.7661 43.9723 43.3018 62.7936C35.126 77.4302 32.6655 92.4109 35.6875 108.564C38.3428 122.899 45.0991 136.958 51.6265 150.539L51.6953 150.682C64.5137 177.385 77.7617 204.993 63.333 238.204C52.5244 263.073 28.5864 281.752 0 288.611V290ZM0 42.4072C4.8833 42.4945 9.62451 42.0165 14.2104 40.9728C32.6538 36.7628 44.9941 24.4503 58.0635 11.4098L58.1016 11.3724C61.9219 7.55933 65.7734 3.71509 69.8315 0H67.9766C64.333 3.37939 60.8423 6.85156 57.3755 10.3004L57.2056 10.4696C44.2656 23.3943 32.0352 35.5892 13.9302 39.7303C9.43701 40.7572 4.79004 41.2264 0 41.1399V42.4072Z" fill="white"/>
</svg>
