<svg width="99" height="144" viewBox="0 0 99 144" fill="none" xmlns="http://www.w3.org/2000/svg">
<ellipse cx="4.5" cy="139.5" rx="4.5" ry="4.5" transform="rotate(-90 4.5 139.5)" fill="white"/>
<ellipse cx="49.5" cy="139.5" rx="4.5" ry="4.5" transform="rotate(-90 49.5 139.5)" fill="white"/>
<ellipse cx="4.5" cy="94.5" rx="4.5" ry="4.5" transform="rotate(-90 4.5 94.5)" fill="white"/>
<ellipse cx="4.5" cy="49.5" rx="4.5" ry="4.5" transform="rotate(-90 4.5 49.5)" fill="white"/>
<ellipse cx="49.5" cy="94.5" rx="4.5" ry="4.5" transform="rotate(-90 49.5 94.5)" fill="white"/>
<ellipse cx="49.5" cy="49.5" rx="4.5" ry="4.5" transform="rotate(-90 49.5 49.5)" fill="white"/>
<ellipse cx="4.5" cy="4.5" rx="4.5" ry="4.5" transform="rotate(-90 4.5 4.5)" fill="white"/>
<ellipse cx="49.5" cy="4.5" rx="4.5" ry="4.5" transform="rotate(-90 49.5 4.5)" fill="white"/>
<ellipse cx="94.5" cy="139.5" rx="4.5" ry="4.5" transform="rotate(-90 94.5 139.5)" fill="white"/>
<ellipse cx="94.5" cy="94.5" rx="4.5" ry="4.5" transform="rotate(-90 94.5 94.5)" fill="white"/>
<ellipse cx="94.5" cy="49.5" rx="4.5" ry="4.5" transform="rotate(-90 94.5 49.5)" fill="white"/>
<ellipse cx="94.5" cy="4.5" rx="4.5" ry="4.5" transform="rotate(-90 94.5 4.5)" fill="white"/>
</svg>
