<svg width="69" height="40" viewBox="0 0 69 40" fill="none" xmlns="http://www.w3.org/2000/svg">
<path d="M34.0068 29.1273C39.0499 29.1273 43.1381 25.0173 43.1381 19.9472C43.1381 14.8772 39.0499 10.7671 34.0068 10.7671C28.9637 10.7671 24.8755 14.8772 24.8755 19.9472C24.8755 25.0173 28.9637 29.1273 34.0068 29.1273Z" fill="white"/>
<path d="M66.9914 18.5965C65.7139 16.8475 64.3368 15.1744 62.8669 13.5855L61.2921 16.8235C62.2045 17.8137 63.094 18.8608 63.9605 19.9648C47.1377 41.4437 20.8411 41.4789 4.05073 20.0427C15.5567 5.35402 31.4909 0.692341 45.7866 6.07527L49.9311 3.78966C44.8417 1.27662 39.5099 0 34.0531 0H34.0106C27.9527 0.00753911 22.0447 1.58196 16.4529 4.68053C10.6624 7.88717 5.4643 12.5953 0.999871 18.6731L0 20.039L0.999871 21.4048C5.4568 27.4725 10.6499 32.1669 16.4366 35.3622C22.0122 38.4394 27.9027 40 33.9469 40H33.9956C40.0536 39.9925 45.9603 38.418 51.5534 35.3195C57.3439 32.1128 62.542 27.4034 67.0026 21.3269L68.0025 19.961L66.9914 18.5965Z" fill="white"/>
<path d="M57.7663 15.3534L60.0685 10.6188L64.7792 8.02911L60.0685 5.43817L57.4926 0.703613L54.9167 5.43817L50.2061 8.02911L54.9167 10.6188L57.7663 15.3534Z" fill="white"/>
</svg>
