<svg height="511pt" viewBox="0 0 511 511.99979" width="511pt" xmlns="http://www.w3.org/2000/svg"><path d="m301.34375 365.59375-154.433594-154.433594c-1.710937-1.710937-4.144531-2.492187-6.53125-2.09375-2.386718.394532-4.4375 1.921875-5.503906 4.09375l-132.210938 269.464844c-3.890624 7.929688-2.367187 17.09375 3.878907 23.335938 3.945312 3.949218 9.058593 6.007812 14.285156 6.007812 3.046875 0 6.132813-.699219 9.050781-2.128906l269.464844-132.210938c2.171875-1.066406 3.699219-3.117187 4.09375-5.503906.398438-2.386719-.382812-4.820312-2.09375-6.53125zm0 0" fill="#ec407a"/><path d="m301.34375 365.59375-154.433594-154.433594c-2.984375-2.984375-8.167968-3.140625-11.453125.855469-.035156.046875-.066406.097656-.09375.148437l-9.035156 18.414063 110.136719 110.132813c15.828125 15.832031 11.394531 42.53125-8.703125 52.394531l-223.738281 109.796875c.730468 1.074218 1.5625 2.105468 2.515624 3.0625 3.949219 3.945312 9.058594 6.007812 14.289063 6.007812 3.042969 0 6.128906-.699218 9.050781-2.132812l269.464844-132.210938c2.171875-1.066406 3.695312-3.113281 4.09375-5.503906.398438-2.386719-.382812-4.820312-2.09375-6.53125zm0 0" fill="#c2185b"/><path d="m104.140625 275.800781 30.546875-62.257812c14.917969 52.804687 43.121094 101.207031 82.984375 141.070312 14.84375 14.847657 30.886719 28.054688 47.882813 39.59375l-50.578126 24.816407c-47.699218-37.75-85.996093-86.851563-110.835937-143.222657zm-101.476563 206.824219c-8.550781 17.429688 9.828126 35.746094 27.214844 27.214844l40.464844-19.855469c-16.300781-16.828125-31.382812-34.582031-45.179688-53.21875zm73.804688-150.425781-26.148438 53.292969c19.269532 29.308593 41.808594 56.476562 67.449219 81.226562l48.105469-23.605469c-6.429688-5.761719-12.769531-11.648437-18.914062-17.792969-27.894532-27.898437-51.460938-59.113281-70.492188-93.121093zm0 0" fill="#42a5f5"/><path d="m336.34375 331.5-155.300781-155.300781c-12.445313-12.445313-32.703125-12.449219-45.152344 0-12.472656 12.476562-12.476563 32.671875 0 45.152343l155.300781 155.300782c12.449219 12.445312 32.703125 12.449218 45.152344 0 12.445312-12.449219 12.445312-32.703125 0-45.152344zm0 0" fill="#ffca28"/><path d="m336.34375 331.5-155.300781-155.300781c-11.621094-11.621094-30.046875-12.390625-42.574219-2.304688.890625.714844 1.753906 1.480469 2.578125 2.304688l155.300781 155.300781c12.445313 12.449219 12.445313 32.703125 0 45.152344-.828125.824218-1.6875 1.589844-2.578125 2.308594 12.523438 10.082031 30.949219 9.3125 42.574219-2.308594 12.445312-12.449219 12.445312-32.703125 0-45.152344zm0 0" fill="#ffa000"/><g fill="#ef5350"><path d="m489.597656 54.40625-13.8125-50.738281c-1.003906-3.683594-5.613281-4.910157-8.316406-2.207031l-14.027344 14.027343c-4.324218 4.324219-5.996094 10.636719-4.378906 16.535157l13.550781 49.367187c1.617188 5.894531-.050781 12.207031-4.375 16.53125l26.984375-26.984375c4.320313-4.324219 5.992188-10.636719 4.375-16.53125zm0 0"/><path d="m381.019531 162.984375-13.550781-49.367187c-1.617188-5.894532.054688-12.207032 4.378906-16.53125l26.984375-26.984376c-4.324219 4.324219-5.996093 10.636719-4.378906 16.53125l13.550781 49.367188c1.617188 5.898438-.054687 12.210938-4.378906 16.535156l-26.984375 26.980469c4.324219-4.324219 5.996094-10.632813 4.378906-16.53125zm0 0"/><path d="m326.40625 217.59375-13.546875-49.367188c-1.621094-5.894531.050781-12.207031 4.375-16.53125l-26.984375 26.984376c-4.324219 4.324218-5.992188 10.636718-4.375 16.53125l13.765625 50.773437c1 3.691406 5.613281 4.917969 8.316406 2.214844l14.074219-14.070313c4.324219-4.324218 5.996094-10.636718 4.375-16.535156zm0 0"/></g><path d="m462.613281 81.390625-1.546875-5.644531-43.722656-12c-5.898438-1.621094-12.210938.050781-16.535156 4.375l-1.976563 1.980468c-4.324219 4.324219-5.996093 10.636719-4.378906 16.53125l1.550781 5.644532 43.722656 12c5.894532 1.617187 12.207032-.050782 16.53125-4.375l1.980469-1.980469c4.320313-4.324219 5.992188-10.636719 4.375-16.53125zm0 0" fill="#ffca28"/><path d="m381.019531 162.984375-1.550781-5.644531-43.722656-12c-5.894532-1.617188-12.207032.054687-16.53125 4.378906l-1.980469 1.976562c-4.324219 4.324219-5.992187 10.636719-4.375 16.535157l1.546875 5.644531 43.722656 12c5.898438 1.617188 12.210938-.054688 16.535156-4.378906l1.980469-1.980469c4.320313-4.324219 5.992188-10.636719 4.375-16.53125zm0 0" fill="#ffca28"/><path d="m294.605469 61.214844c0 8.28125-6.714844 14.996094-14.996094 14.996094-8.277344 0-14.992187-6.714844-14.992187-14.996094s6.714843-14.992188 14.992187-14.992188c8.28125 0 14.996094 6.710938 14.996094 14.992188zm0 0" fill="#42a5f5"/><path d="m247.667969 135.019531v-13.351562c0-3.1875 2.582031-5.769531 5.769531-5.769531h30.550781c3.183594 0 5.765625 2.582031 5.765625 5.769531v13.351562c0 3.1875-2.582031 5.769531-5.765625 5.769531h-30.550781c-3.1875 0-5.769531-2.582031-5.769531-5.769531zm0 0" fill="#ffa000"/><path d="m348.816406 63.90625h-13.355468c-3.1875 0-5.769532-2.582031-5.769532-5.765625v-30.550781c0-3.1875 2.582032-5.769532 5.769532-5.769532h13.355468c3.183594 0 5.765625 2.582032 5.765625 5.769532v30.550781c0 3.183594-2.582031 5.765625-5.765625 5.765625zm0 0" fill="#ffa000"/><path d="m399.195312 243.832031c0 8.28125-6.714843 14.996094-14.996093 14.996094s-14.992188-6.714844-14.992188-14.996094 6.710938-14.992187 14.992188-14.992187 14.996093 6.710937 14.996093 14.992187zm0 0" fill="#42a5f5"/><path d="m484.675781 170.40625c0 8.28125-6.714843 14.996094-14.996093 14.996094s-14.992188-6.714844-14.992188-14.996094 6.710938-14.992188 14.992188-14.992188 14.996093 6.710938 14.996093 14.992188zm0 0" fill="#42a5f5"/><path d="m461.488281 252.984375 9.441407-9.441406c2.253906-2.253907 2.253906-5.90625 0-8.15625l-21.605469-21.605469c-2.25-2.253906-5.902344-2.253906-8.15625 0l-9.441407 9.441406c-2.253906 2.253906-2.253906 5.90625 0 8.15625l21.601563 21.605469c2.253906 2.253906 5.90625 2.253906 8.160156 0zm0 0" fill="#ffa000"/><path d="m57.757812 476.53125-53.734374 26.367188c.34375.507812.710937 1 1.101562 1.480468.042969.050782.085938.105469.128906.160156.402344.484376.824219.957032 1.277344 1.410157.003906.003906.007812.007812.011719.015625.433593.433594.890625.835937 1.351562 1.222656.15625.132812.320313.261719.484375.390625.324219.257813.652344.5.984375.730469.175781.125.351563.25.53125.371094.488281.320312.984375.625 1.492188.898437.0625.03125.128906.058594.191406.09375.492187.257813.988281.496094 1.496094.710937.105469.042969.214843.085938.320312.128907.535157.214843 1.074219.414062 1.625.582031.015625.007812.03125.011719.046875.015625 1.867188.570313 3.804688.859375 5.761719.859375 2.125 0 4.265625-.351562 6.359375-1.042969.246094-.082031.496094-.164062.742188-.257812.1875-.070313.371093-.140625.554687-.214844.464844-.191406.929687-.390625 1.390625-.617187l40.464844-19.851563c-4.277344-4.417969-8.46875-8.90625-12.582032-13.453125zm0 0" fill="#1976d2"/><path d="m152.019531 430.273438-47.390625 23.257812c4.289063 4.464844 8.664063 8.863281 13.140625 13.1875l48.105469-23.605469c-4.679688-4.195312-9.3125-8.460937-13.855469-12.839843zm0 0" fill="#1976d2"/><path d="m243.035156 377.449219c-2.976562 6.515625-8.128906 12.152343-15.273437 15.65625l-27.601563 13.546875c4.832032 4.246094 9.765625 8.375 14.816406 12.371094l36.324219-17.820313 14.25-6.996094c-7.710937-5.238281-15.214843-10.835937-22.515625-16.757812zm0 0" fill="#1976d2"/><path d="m224.683594 23.753906-32.882813-22.855468c-3.296875-2.292969-7.808593.066406-7.808593 4.082031v16.953125c0 5.699218 2.515624 10.960937 6.585937 13.78125l34.105469 23.609375c4.070312 2.816406 6.585937 8.078125 6.585937 13.777343v-35.566406c0-5.699218-2.515625-10.960937-6.585937-13.78125zm0 0" fill="#ef5350"/><path d="m224.683594 131.3125-34.105469-23.609375c-4.070313-2.820313-6.585937-8.082031-6.585937-13.78125v35.570313c0 5.699218 2.515624 10.960937 6.585937 13.78125l32.890625 22.757812c3.296875 2.28125 7.800781-.082031 7.800781-4.089844v-16.851562c0-5.699219-2.515625-10.960938-6.585937-13.777344zm0 0" fill="#ef5350"/><path d="m224.683594 59.324219c4.070312 2.816406 6.585937 8.078125 6.585937 13.777343v2.609376c0 5.699218-2.515625 10.960937-6.585937 13.78125l-30.203125 20.910156-3.902344-2.699219c-4.070313-2.820313-6.585937-8.082031-6.585937-13.78125v-2.609375c0-5.699219 2.515624-10.960938 6.585937-13.78125l30.203125-20.90625zm0 0" fill="#ffca28"/><path d="m488.726562 287.734375 22.855469 32.882813c2.289063 3.296874-.070312 7.808593-4.085937 7.808593h-16.953125c-5.699219 0-10.960938-2.515625-13.78125-6.589843l-23.605469-34.101563c-2.820312-4.074219-8.082031-6.589844-13.78125-6.589844h35.570312c5.699219 0 10.960938 2.515625 13.78125 6.589844zm0 0" fill="#ef5350"/><path d="m381.167969 287.734375 23.609375 34.101563c2.820312 4.074218 8.082031 6.589843 13.78125 6.589843h-35.570313c-5.699219 0-10.960937-2.515625-13.78125-6.589843l-22.757812-32.886719c-2.28125-3.300781.078125-7.804688 4.089843-7.804688h16.847657c5.699219 0 10.960937 2.515625 13.78125 6.589844zm0 0" fill="#ef5350"/><path d="m453.15625 287.734375c-2.820312-4.074219-8.082031-6.589844-13.78125-6.589844h-2.609375c-5.699219 0-10.960937 2.515625-13.78125 6.589844l-20.90625 30.203125 2.695313 3.898438c2.820312 4.074218 8.082031 6.589843 13.78125 6.589843h2.609374c5.699219 0 10.960938-2.515625 13.78125-6.589843l20.910157-30.203126zm0 0" fill="#ffca28"/></svg>