<svg width="15" height="15" viewBox="0 0 15 15" fill="none" xmlns="http://www.w3.org/2000/svg">
<path d="M7.5 3.75003C7.84518 3.75003 8.125 4.02985 8.125 4.37503V8.12503C8.125 8.47021 7.84518 8.75003 7.5 8.75003C7.15482 8.75003 6.875 8.47021 6.875 8.12503V4.37503C6.875 4.02985 7.15482 3.75003 7.5 3.75003Z" fill="white"/>
<path d="M7.5 10C7.15482 10 6.875 10.2799 6.875 10.625C6.875 10.9702 7.15482 11.25 7.5 11.25C7.84518 11.25 8.125 10.9702 8.125 10.625C8.125 10.2799 7.84518 10 7.5 10Z" fill="white"/>
<path fill-rule="evenodd" clip-rule="evenodd" d="M7.5 1.25003C4.04822 1.25003 1.25 4.04825 1.25 7.50003C1.25 10.9518 4.04822 13.75 7.5 13.75C10.9518 13.75 13.75 10.9518 13.75 7.50003C13.75 4.04825 10.9518 1.25003 7.5 1.25003ZM2.5 7.50003C2.5 10.2615 4.73858 12.5 7.5 12.5C10.2614 12.5 12.5 10.2615 12.5 7.50003C12.5 4.73861 10.2614 2.50003 7.5 2.50003C4.73858 2.50003 2.5 4.73861 2.5 7.50003Z" fill="white"/>
</svg>
