<svg width="13" height="13" viewBox="0 0 13 13" fill="none" xmlns="http://www.w3.org/2000/svg">
<path d="M6.5 2.75003C6.84518 2.75003 7.125 3.02985 7.125 3.37503V7.12503C7.125 7.47021 6.84518 7.75003 6.5 7.75003C6.15482 7.75003 5.875 7.47021 5.875 7.12503V3.37503C5.875 3.02985 6.15482 2.75003 6.5 2.75003Z" fill="#EA3939"/>
<path d="M6.5 9.00003C6.15482 9.00003 5.875 9.27985 5.875 9.62503C5.875 9.97021 6.15482 10.25 6.5 10.25C6.84518 10.25 7.125 9.97021 7.125 9.62503C7.125 9.27985 6.84518 9.00003 6.5 9.00003Z" fill="#EA3939"/>
<path fill-rule="evenodd" clip-rule="evenodd" d="M6.5 0.250031C3.04822 0.250031 0.25 3.04825 0.25 6.50003C0.25 9.95181 3.04822 12.75 6.5 12.75C9.95178 12.75 12.75 9.95181 12.75 6.50003C12.75 3.04825 9.95178 0.250031 6.5 0.250031ZM1.5 6.50003C1.5 9.26146 3.73858 11.5 6.5 11.5C9.26142 11.5 11.5 9.26146 11.5 6.50003C11.5 3.73861 9.26142 1.50003 6.5 1.50003C3.73858 1.50003 1.5 3.73861 1.5 6.50003Z" fill="#EA3939"/>
</svg>
