<svg width="15" height="15" viewBox="0 0 15 15" fill="none" xmlns="http://www.w3.org/2000/svg">
<path fill-rule="evenodd" clip-rule="evenodd" d="M7.5 1.25C10.9518 1.25 13.75 4.04822 13.75 7.5C13.75 10.9518 10.9518 13.75 7.5 13.75C4.04822 13.75 1.25 10.9518 1.25 7.5C1.25 4.04822 4.04822 1.25 7.5 1.25ZM7.49995 2.50003C4.73852 2.50003 2.49995 4.7386 2.49995 7.50003C2.49995 10.2615 4.73852 12.5 7.49995 12.5C10.2614 12.5 12.4999 10.2615 12.4999 7.50003C12.4999 4.7386 10.2614 2.50003 7.49995 2.50003ZM4.55823 4.55831C4.7838 4.33273 5.13772 4.31538 5.38305 4.50625L5.44198 4.55831L7.5001 6.61643L9.55823 4.55831C9.8026 4.31393 10.1976 4.31393 10.442 4.55831C10.6676 4.78388 10.6849 5.1378 10.494 5.38313L10.442 5.44206L8.38385 7.50018L10.442 9.55831C10.6864 9.80268 10.6864 10.1977 10.442 10.4421C10.3201 10.5639 10.1601 10.6252 10.0001 10.6252C9.86677 10.6252 9.73344 10.5826 9.62217 10.4979L9.55823 10.4421L7.5001 8.38393L5.44198 10.4421C5.3201 10.5639 5.1601 10.6252 5.0001 10.6252C4.8401 10.6252 4.6801 10.5639 4.55823 10.4421C4.33265 10.2165 4.3153 9.86256 4.50617 9.61724L4.55823 9.55831L6.61635 7.50018L4.55823 5.44206C4.31385 5.19768 4.31385 4.80268 4.55823 4.55831Z" fill="#EA3939"/>
</svg>
