<svg width="24" height="24" viewBox="0 0 24 24" fill="none" xmlns="http://www.w3.org/2000/svg">
<path fill-rule="evenodd" clip-rule="evenodd" d="M9.48798 6.78336L11.113 5.22781C11.4303 4.92406 11.9447 4.92406 12.262 5.22781C12.5549 5.50818 12.5774 5.94936 12.3296 6.25448L12.262 6.32775L12.0037 6.57346C12.1682 6.56155 12.3337 6.55556 12.5 6.55556C16.0899 6.55556 19 9.34134 19 12.7778C19 16.2142 16.0899 19 12.5 19C8.91015 19 6 16.2142 6 12.7778C6 12.3482 6.36377 12 6.8125 12C7.26123 12 7.625 12.3482 7.625 12.7778C7.625 15.3551 9.80761 17.4444 12.5 17.4444C15.1924 17.4444 17.375 15.3551 17.375 12.7778C17.375 10.2004 15.1924 8.11111 12.5 8.11111C12.348 8.11111 12.197 8.11775 12.0474 8.13091L12.262 8.33892C12.5793 8.64266 12.5793 9.13512 12.262 9.43886C11.9691 9.71924 11.5083 9.7408 11.1895 9.50356L11.113 9.43886L9.48798 7.88331C9.19508 7.60293 9.17255 7.16175 9.42038 6.85663L9.48798 6.78336L11.113 5.22781L9.48798 6.78336Z" fill="#6246D4"/>
</svg>
