<svg width="15" height="15" viewBox="0 0 15 15" fill="none" xmlns="http://www.w3.org/2000/svg">
<path fill-rule="evenodd" clip-rule="evenodd" d="M7.5 1.25C10.9518 1.25 13.75 4.04822 13.75 7.5C13.75 10.9518 10.9518 13.75 7.5 13.75C4.04822 13.75 1.25 10.9518 1.25 7.5C1.25 4.04822 4.04822 1.25 7.5 1.25ZM7.5 2.5C4.73858 2.5 2.5 4.73858 2.5 7.5C2.5 10.2614 4.73858 12.5 7.5 12.5C10.2614 12.5 12.5 10.2614 12.5 7.5C12.5 4.73858 10.2614 2.5 7.5 2.5ZM9.55806 5.18306L6.25 8.49112L5.44194 7.68306C5.19786 7.43898 4.80214 7.43898 4.55806 7.68306C4.31398 7.92714 4.31398 8.32286 4.55806 8.56694L5.80806 9.81694C6.05214 10.061 6.44786 10.061 6.69194 9.81694L10.4419 6.06694C10.686 5.82286 10.686 5.42714 10.4419 5.18306C10.1979 4.93898 9.80214 4.93898 9.55806 5.18306Z" fill="#77F956"/>
</svg>
