<svg width="28" height="28" viewBox="0 0 28 28" fill="none" xmlns="http://www.w3.org/2000/svg">
<path d="M25.8556 6.5987C24.9649 6.99268 24.0204 7.25142 23.0533 7.36637C24.0726 6.75671 24.8356 5.79722 25.1999 4.6667C24.2433 5.23604 23.1944 5.63504 22.1013 5.85087C21.367 5.06521 20.3937 4.54416 19.3327 4.36872C18.2717 4.19328 17.1825 4.37328 16.2344 4.88073C15.2863 5.38819 14.5324 6.19467 14.0899 7.17479C13.6474 8.15492 13.5411 9.25378 13.7876 10.3005C11.8476 10.2033 9.94966 9.69915 8.21711 8.82081C6.48455 7.94248 4.95609 6.70959 3.73094 5.2022C3.29728 5.94706 3.06939 6.7938 3.07061 7.6557C3.07061 9.34737 3.93161 10.8419 5.24061 11.7169C4.46595 11.6925 3.70834 11.4833 3.03094 11.1067V11.1674C3.03117 12.294 3.42104 13.3859 4.13443 14.2579C4.84782 15.13 5.84083 15.7284 6.94511 15.9519C6.22599 16.1467 5.47196 16.1755 4.74011 16.0359C5.05145 17.0056 5.65828 17.8538 6.47563 18.4615C7.29298 19.0692 8.27992 19.4061 9.29827 19.425C8.28617 20.2199 7.12731 20.8075 5.88797 21.1542C4.64862 21.501 3.35309 21.6 2.07544 21.4457C4.30575 22.88 6.90205 23.6415 9.55377 23.639C18.5289 23.639 23.4371 16.2039 23.4371 9.7557C23.4371 9.5457 23.4313 9.33337 23.4219 9.1257C24.3773 8.43523 25.2018 7.57989 25.8568 6.59987L25.8556 6.5987Z" fill="white"/>
</svg>
