<svg width="24" height="24" viewBox="0 0 24 24" fill="none" xmlns="http://www.w3.org/2000/svg">
<path fill-rule="evenodd" clip-rule="evenodd" d="M12.5 4C14.6846 4 16.4665 5.72437 16.5587 7.88628L16.5625 8.0625V10.5C17.9087 10.5 19 11.5913 19 12.9375V17.8125C19 19.1587 17.9087 20.25 16.5625 20.25H8.4375C7.09131 20.25 6 19.1587 6 17.8125V12.9375C6 11.5913 7.09131 10.5 8.4375 10.5H14.9375V8.0625C14.9375 6.76438 13.9228 5.70328 12.6432 5.62914L12.5 5.625C11.1538 5.625 10.0625 6.71631 10.0625 8.0625C10.0625 8.51123 9.69873 8.875 9.25 8.875C8.80127 8.875 8.4375 8.51123 8.4375 8.0625C8.4375 5.81884 10.2563 4 12.5 4ZM16.5625 12.125H8.4375C7.98877 12.125 7.625 12.4888 7.625 12.9375V17.8125C7.625 18.2612 7.98877 18.625 8.4375 18.625H16.5625C17.0112 18.625 17.375 18.2612 17.375 17.8125V12.9375C17.375 12.4888 17.0112 12.125 16.5625 12.125Z" fill="#6246D4"/>
</svg>
