<svg width="277" height="122" viewBox="0 0 277 122" fill="none" xmlns="http://www.w3.org/2000/svg">
<path fill-rule="evenodd" clip-rule="evenodd" d="M0.236244 0C0.647865 3.07239 1.16275 6.13831 1.78164 9.1925C8.17661 40.7521 25.2822 69.1316 50.2019 89.5254C75.1216 109.919 106.324 121.074 138.525 121.101C157.209 121.142 175.709 117.407 192.915 110.12C226.933 95.6375 253.818 68.2545 267.676 33.9768C272.121 22.9802 275.11 11.562 276.643 0H220.464C218.207 10.0046 214.124 19.5635 208.368 28.1785C199.138 41.9922 186.019 52.7587 170.67 59.1165C155.321 65.4741 138.431 67.1377 122.137 63.8965C105.843 60.6553 90.8753 52.6552 79.1276 40.9075C67.887 29.6669 60.0772 15.4783 56.5847 0H0.236244Z" fill="#6246D4"/>
</svg>
