<svg width="540" height="200" viewBox="0 0 540 200" fill="none" xmlns="http://www.w3.org/2000/svg">
<path fill-rule="evenodd" clip-rule="evenodd" d="M539.578 200C536.736 190.681 533.401 181.474 529.573 172.419C500.464 103.558 445.234 49.0521 375.996 20.8544C306.757 -7.34337 229.161 -6.93107 160.226 22.0009C100.272 47.3971 50.9371 92.7336 20.5761 150.333C12.1607 166.298 5.3464 182.934 0.16748 200H121.431C134.509 176.311 153.109 156.005 175.76 140.869C203.692 122.206 236.531 112.244 270.124 112.244C315.16 112.282 358.34 130.189 390.186 162.034C401.543 173.391 411.127 186.19 418.76 200H539.578Z" fill="#6246D4"/>
</svg>
