<svg width="1438" height="253" viewBox="0 0 1438 253" fill="none" xmlns="http://www.w3.org/2000/svg">
<path fill-rule="evenodd" clip-rule="evenodd" d="M0 14.6658L59.9167 8.99121C119.833 3.31658 239.667 -8.03266 359.5 8.99121C479.333 26.0151 599.167 71.4121 719 77.0867C838.833 82.7613 958.667 48.7136 1078.5 37.3643C1198.33 26.0151 1318.17 37.3643 1378.08 43.0389L1438 48.7136V253H1378.08C1318.17 253 1198.33 253 1078.5 253C958.667 253 838.833 253 719 253C599.167 253 479.333 253 359.5 253C239.667 253 119.833 253 59.9167 253H0V14.6658Z" fill="#6246D4"/>
</svg>
