<svg width="339" height="420" viewBox="0 0 339 420" fill="none" xmlns="http://www.w3.org/2000/svg">
<path fill-rule="evenodd" clip-rule="evenodd" d="M339 0.742554C312.206 14.6387 288.923 35.8555 277.014 58.3368C257.898 94.4196 266.232 125.64 274.291 155.831L274.292 155.835C282.108 185.088 289.489 212.719 267.723 239.79C255.276 255.259 237.981 259.145 213.263 252.025C191.342 245.697 166.243 231.29 142.003 217.295L140.664 216.527C118.956 204.085 96.6261 191.287 76.5451 184.364C53.355 176.374 35.7235 177.23 22.6189 186.944C7.37071 198.246 0.0356847 220.61 0.803629 253.421C1.73796 292.996 14.4837 348.999 38.5975 420H39.763L40.0131 419.914C15.8374 348.919 3.10496 292.886 2.16966 253.388C1.40605 221.044 8.55625 199.061 23.4269 188.043C51.8511 166.964 97.3191 193.141 141.287 218.454L141.295 218.459C165.589 232.485 190.732 247.001 212.88 253.329C237.837 260.528 256.12 256.377 268.781 240.639C290.978 213.031 283.533 185.076 275.6 155.469C267.603 125.54 259.354 94.5593 278.211 58.9681C289.881 36.8687 312.692 15.9985 339 2.22473V0.742554ZM339 84.1033C316.553 114.452 322.544 146.349 328.351 177.238L328.362 177.295C334.569 210.379 340.432 241.633 312.893 270.064C278.634 305.438 221.267 301.241 202.054 296.643C157.094 285.88 123.363 264.463 98.7359 248.826L98.7098 248.81L98.709 248.809C76.9197 234.979 61.2317 225.021 49.9689 230.085C34.3569 237.154 33.366 269.339 71.4074 420H72.8207C55.5939 351.884 46.1854 307.821 42.7046 278.852C39.1886 249.687 41.538 235.503 50.5722 231.435C61.1009 226.699 76.4145 236.393 97.6139 249.814L98.0007 250.058L98.1737 250.168C122.85 265.808 156.666 287.242 201.748 298.039C208.649 299.688 227.072 302.292 247.415 300.332C275.323 297.651 297.683 287.822 313.861 271.111C326.483 258.127 333.238 243.186 334.601 225.489C335.838 209.792 332.719 193.237 329.707 177.245L329.674 177.072C324.022 146.995 318.191 115.943 339 86.5049V84.1033ZM339 302.05C338.704 302.034 338.408 302.021 338.112 302.009C317.694 301.246 301.378 310.641 284.097 320.593L284.047 320.621C262.887 332.811 240.999 345.416 208.276 342.564C185.288 340.564 169.429 332.017 156.705 325.159L156.701 325.157L156.693 325.153C144.688 318.687 136.019 314.017 127.675 318.624C118.57 323.64 114.483 337.036 115.161 359.558C115.627 375.257 118.519 395.473 123.786 420H125.184C112.603 361.54 113.625 327.939 128.329 319.824C136.047 315.597 144.414 320.101 156.032 326.357L156.05 326.366L156.052 326.367C168.892 333.292 184.877 341.913 208.152 343.934C241.202 346.793 263.188 334.176 284.505 321.942L284.729 321.814C301.842 311.947 318.011 302.643 338.057 303.384C338.372 303.396 338.686 303.41 339 303.426V302.05Z" fill="white"/>
</svg>
