<svg width="139" height="280" viewBox="0 0 139 280" fill="none" xmlns="http://www.w3.org/2000/svg">
<path fill-rule="evenodd" clip-rule="evenodd" d="M139 0.000244141C120.689 0.0284119 102.386 3.65714 85.1746 10.8806C55.5242 23.4404 31.1256 45.8615 16.1105 74.3474C1.09541 102.833 -3.61333 135.633 2.78163 167.193C9.17665 198.752 26.2822 227.132 51.2019 247.525C75.9862 267.809 106.985 278.953 139 279.099V223.509C133.698 223.476 128.387 222.941 123.137 221.897C106.843 218.655 91.8753 210.655 80.1276 198.908C68.38 187.16 60.3798 172.193 57.1387 155.898C53.8975 139.604 55.561 122.714 61.9188 107.365C68.2765 92.0162 79.043 78.8972 92.8567 69.6672C106.525 60.5343 122.569 55.6148 139 55.5123V0.000244141Z" fill="#6246D4"/>
</svg>
